# xmcd
#
# Track frame offsets: 
#        150
#        15952
#        31400
#        49670
#        70142
#        90270
#        111940
#        125615
#        143547
#        154732
#
# Disc length: 2264 seconds
#
# Revision: 3
# Processed by: cddbd v1.5.2PL0 Copyright (c) Steve Scherf et al.
# Submitted via: ExactAudioCopy v0.99pb5
#
DISCID=7408d60a
DTITLE=John Lee Hooker - Jealous
DYEAR=1996
DGENRE=Blues
TTITLE0=Jealous
TTITLE1=Ninety Days
TTITLE2=Early One Morning
TTITLE3=When My First Wife Left Me
TTITLE4=Boogie Woman
TTITLE5=Well Well
TTITLE6=I Didn't Know
TTITLE7=We'll Meet Again
TTITLE8=Worried Life Blues
TTITLE9=Ninety Days
EXTD=YEAR: 1996
EXTT0=
EXTT1=
EXTT2=
EXTT3=
EXTT4=
EXTT5=
EXTT6=
EXTT7=
EXTT8=
EXTT9=
PLAYORDER=
